<svg width="14" height="16" viewBox="0 0 14 16" fill="none" xmlns="http://www.w3.org/2000/svg">
<path fill-rule="evenodd" clip-rule="evenodd" d="M3.88889 0C3.45933 0 3.11111 0.358172 3.11111 0.8V1.6H2.33333C1.04467 1.6 0 2.67452 0 4V5.6V13.6C0 14.9255 1.04467 16 2.33333 16H11.6667C12.9553 16 14 14.9255 14 13.6V5.6V4C14 2.67452 12.9553 1.6 11.6667 1.6H10.8889V0.8C10.8889 0.358172 10.5407 0 10.1111 0C9.68156 0 9.33333 0.358172 9.33333 0.8V1.6H4.66667V0.8C4.66667 0.358172 4.31844 0 3.88889 0ZM10.1111 3.2H3.88889H2.33333C1.90378 3.2 1.55556 3.55817 1.55556 4V4.8H12.4444V4C12.4444 3.55817 12.0962 3.2 11.6667 3.2H10.1111ZM1.55556 13.6V6.4L12.4444 6.4V13.6C12.4444 14.0418 12.0962 14.4 11.6667 14.4H2.33333C1.90378 14.4 1.55556 14.0418 1.55556 13.6Z" fill="#8C9196"/>
</svg>
