<svg width="14" height="14" viewBox="0 0 14 14" fill="none" xmlns="http://www.w3.org/2000/svg">
<path d="M10.6151 0.0380917C10.183 0.122857 9.8057 0.267779 9.47758 0.483794C9.34086 0.574029 8.94437 0.948639 8.11312 1.77442C7.03031 2.8545 6.94008 2.9502 6.9018 3.07598C6.81976 3.35489 6.93734 3.62833 7.19437 3.75684C7.27914 3.79786 7.38305 3.82794 7.44867 3.82794C7.68656 3.8252 7.74945 3.77325 8.92797 2.6002C10.0245 1.50645 10.0545 1.48184 10.2815 1.36973C10.6178 1.2084 10.8092 1.16739 11.1565 1.18379C11.3397 1.192 11.5092 1.21661 11.6213 1.25489C12.1409 1.42169 12.5838 1.86739 12.7506 2.39239C12.7998 2.54825 12.8108 2.64669 12.8108 2.92559C12.8108 3.30567 12.7834 3.42325 12.6112 3.75958C12.5237 3.93458 12.3541 4.11231 10.503 5.96622L8.49047 7.97872L8.2307 8.10177C7.92445 8.24942 7.76586 8.28497 7.4432 8.28497C7.02758 8.28497 6.65297 8.14552 6.31391 7.86661C6.21547 7.78458 6.10609 7.70255 6.07055 7.68341C5.79164 7.53302 5.43617 7.65059 5.29125 7.9377C5.21742 8.08809 5.20648 8.20841 5.25297 8.38067C5.31039 8.59669 5.83539 9.01778 6.28656 9.21466C7.23539 9.62755 8.36469 9.49903 9.185 8.88653C9.4557 8.68692 13.3659 4.75216 13.4971 4.55255C13.7377 4.17794 13.8827 3.8088 13.9592 3.3713C14.137 2.3459 13.694 1.23848 12.8436 0.598639C12.5537 0.379889 12.1436 0.183013 11.7991 0.0927792C11.4573 0.00527859 10.9186 -0.01933 10.6151 0.0380917Z" fill="#F26A4E"/>
<path d="M5.74793 4.90547C5.26394 4.99844 4.83738 5.18164 4.48738 5.44414C4.1948 5.66289 0.642852 9.23398 0.503398 9.44727C0.0850391 10.0953 -0.076289 10.8117 0.0412891 11.5281C0.0959766 11.8754 0.175273 12.1133 0.333867 12.4195C0.839727 13.3902 1.84051 14 2.92879 14C3.50848 14 4.1784 13.7758 4.64598 13.4258C4.74441 13.352 5.25848 12.857 5.78621 12.3266C6.73777 11.3723 6.74871 11.3586 6.77879 11.2137C6.81434 11.0414 6.78426 10.8937 6.68035 10.7406C6.59559 10.6148 6.37684 10.5 6.22371 10.5C5.99129 10.5027 5.91473 10.5629 4.90848 11.5637C3.88855 12.5781 3.8366 12.6164 3.41824 12.7586C3.19129 12.8352 2.64988 12.8324 2.39285 12.7504C1.86785 12.5836 1.42215 12.1406 1.25535 11.6211C1.21707 11.509 1.19246 11.3395 1.18426 11.1562C1.16785 10.809 1.20613 10.6203 1.3702 10.2812L1.4823 10.0488L3.33348 8.20039L5.18191 6.34922L5.41434 6.23711C5.71512 6.09219 5.91746 6.04297 6.21004 6.04297C6.6448 6.04297 7.01394 6.17695 7.35848 6.46406C7.5909 6.6582 7.6948 6.70742 7.8616 6.70742C8.10496 6.70742 8.29637 6.58164 8.39754 6.35742C8.45769 6.23164 8.46316 6.10586 8.41668 5.9582C8.31824 5.62461 7.57723 5.12695 6.93191 4.96016C6.59285 4.87266 6.05418 4.84805 5.74793 4.90547Z" fill="#F26A4E"/>
</svg>
