<svg width="12" height="15" viewBox="0 0 12 15" fill="none" xmlns="http://www.w3.org/2000/svg">
<path d="M0 1.5C0 0.671574 0.671572 0 1.5 0H10.5C11.3284 0 12 0.671572 12 1.5V14.25C12 14.5309 11.843 14.7883 11.5932 14.9169C11.3434 15.0454 11.0427 15.0236 10.8141 14.8603L6 11.4217L1.18593 14.8603C0.957318 15.0236 0.656617 15.0454 0.406814 14.9169C0.157011 14.7883 0 14.5309 0 14.25V1.5ZM10.5 1.5L1.5 1.5V12.7926L5.56407 9.8897C5.82484 9.70343 6.17516 9.70343 6.43593 9.8897L10.5 12.7926V1.5Z" fill="#F26A4E"/>
</svg>
