<svg width="25" height="25" viewBox="0 0 25 25" fill="none" xmlns="http://www.w3.org/2000/svg">
<path d="M0 12.5C0 5.59644 5.59644 0 12.5 0C19.4036 0 25 5.59644 25 12.5C25 19.4036 19.4036 25 12.5 25C5.59644 25 0 19.4036 0 12.5Z" fill="#F68634"/>
<path d="M13.8521 15.3335L15.7201 17.1369C16.1028 17.5055 16.1028 18.1042 15.7201 18.4732C15.3378 18.8422 14.7182 18.8422 14.3363 18.4732L12.4997 16.7011L10.6646 18.4732C10.4732 18.6575 10.2225 18.7498 9.97179 18.7498C9.72147 18.7498 9.47114 18.6575 9.2798 18.4732C8.89751 18.1042 8.89751 17.5059 9.2794 17.1369L11.1477 15.3335C10.4674 15.1839 9.81144 14.9237 9.20722 14.5578C8.74995 14.2795 8.61259 13.6964 8.90071 13.2546C9.18802 12.8123 9.79225 12.6791 10.2503 12.9574C11.6183 13.7881 13.3806 13.7883 14.7494 12.9574C15.2075 12.6791 15.8115 12.8123 16.0994 13.2546C16.3875 13.696 16.2498 14.2795 15.7925 14.5578C15.1883 14.9241 14.5323 15.1839 13.8521 15.3335Z" fill="white"/>
<path fill-rule="evenodd" clip-rule="evenodd" d="M9.1499 9.47582C9.1499 11.2541 10.6487 12.7007 12.4915 12.7007C14.3348 12.7007 15.8332 11.2541 15.8332 9.47582C15.8332 7.69693 14.3348 6.25 12.4915 6.25C10.6487 6.25 9.1499 7.69693 9.1499 9.47582ZM13.8751 9.47583C13.8751 8.73934 13.2545 8.14046 12.4915 8.14046C11.7292 8.14046 11.1079 8.73934 11.1079 9.47583C11.1079 10.2117 11.7292 10.811 12.4915 10.811C13.2545 10.811 13.8751 10.2117 13.8751 9.47583Z" fill="white"/>
</svg>
