<svg width="25" height="25" viewBox="0 0 25 25" fill="none" xmlns="http://www.w3.org/2000/svg">
<circle cx="12.5" cy="12.5" r="12.5" fill="#00AEEF"/>
<path d="M18.3959 11.6926H17.2804V6.68358C17.2804 6.33158 16.995 6.04102 16.643 6.04102H8.39943C8.04743 6.04102 7.76205 6.33158 7.76205 6.68358V11.6926H6.6466C5.75038 11.6926 5 12.4269 5 13.3231V18.3163C5 18.6683 5.30662 18.9589 5.65865 18.9589H19.3839C19.7359 18.9589 20 18.6683 20 18.3163V13.3231C20 12.4269 19.2921 11.6926 18.3959 11.6926ZM9.03682 7.31578H16.0057V11.6926H9.03682V7.31578ZM18.7252 17.6841H6.27479V13.3231C6.27479 13.1298 6.4533 12.9674 6.6466 12.9674H18.3959C18.5892 12.9674 18.7252 13.1298 18.7252 13.3231V17.6841Z" fill="white"/>
<path d="M16.6432 15.3472H8.39959C8.04759 15.3472 7.76221 15.6325 7.76221 15.9846C7.76221 16.3366 8.04759 16.6219 8.39959 16.6219H16.6432C16.9952 16.6219 17.2806 16.3366 17.2806 15.9846C17.2806 15.6325 16.9952 15.3472 16.6432 15.3472Z" fill="white"/>
<path d="M7.63457 13.5625H7.25213C6.90013 13.5625 6.61475 13.8479 6.61475 14.1999C6.61475 14.5519 6.90013 14.8373 7.25213 14.8373H7.63457C7.98657 14.8373 8.27195 14.5519 8.27195 14.1999C8.27195 13.8479 7.9866 13.5625 7.63457 13.5625Z" fill="white"/>
<path d="M14.8585 8.08057H10.1843C9.83226 8.08057 9.54688 8.36595 9.54688 8.71795C9.54688 9.06995 9.83226 9.35533 10.1843 9.35533H14.8585C15.2105 9.35533 15.4959 9.06995 15.4959 8.71795C15.4959 8.36595 15.2105 8.08057 14.8585 8.08057Z" fill="white"/>
<path d="M14.8585 9.69531H10.1843C9.83226 9.69531 9.54688 9.98069 9.54688 10.3327C9.54688 10.6847 9.83226 10.9701 10.1843 10.9701H14.8585C15.2105 10.9701 15.4959 10.6847 15.4959 10.3327C15.4959 9.98069 15.2105 9.69531 14.8585 9.69531Z" fill="white"/>
</svg>
