<svg width="25" height="25" viewBox="0 0 25 25" fill="none" xmlns="http://www.w3.org/2000/svg">
<path d="M0 12.5C0 5.59644 5.59644 0 12.5 0C19.4036 0 25 5.59644 25 12.5C25 19.4036 19.4036 25 12.5 25C5.59644 25 0 19.4036 0 12.5Z" fill="#F8991D"/>
<path fill-rule="evenodd" clip-rule="evenodd" d="M19.1668 17.5002H16.9447C16.9447 12.2922 12.7081 8.05558 7.50024 8.05558V5.8335C13.9331 5.8335 19.1668 11.0672 19.1668 17.5002ZM7.50012 15.8335C7.50012 14.9131 8.24636 14.1668 9.16677 14.1668C10.0872 14.1668 10.8334 14.9131 10.8334 15.8335C10.8334 16.7539 10.0872 17.5002 9.16677 17.5002C8.24636 17.5002 7.50012 16.7539 7.50012 15.8335ZM13.0558 17.5001H15.2778C15.2778 13.2114 11.7887 9.72223 7.5 9.72223V11.9447C10.5633 11.9447 13.0558 14.4368 13.0558 17.5001Z" fill="white"/>
</svg>
