<svg width="16" height="12" viewBox="0 0 16 12" fill="none" xmlns="http://www.w3.org/2000/svg">
<path d="M15.6956 5.64496C14.017 2.21921 11.0357 0.444336 7.99995 0.444336C4.96418 0.444336 1.9829 2.21921 0.30428 5.64496C0.194797 5.86839 0.194797 6.13139 0.30428 6.35482C1.9829 9.78057 4.96418 11.5554 7.99995 11.5554C11.0357 11.5554 14.017 9.78057 15.6956 6.35482C15.8051 6.13139 15.8051 5.86839 15.6956 5.64496ZM7.99995 9.96814C5.69089 9.96814 3.33177 8.68181 1.87857 5.99989C3.33177 3.31797 5.69089 2.03164 7.99995 2.03164C10.309 2.03164 12.6681 3.31797 14.1213 5.99989C12.6681 8.68181 10.309 9.96814 7.99995 9.96814Z" fill="#8C9196"/>
<path d="M7.99995 8.38084C9.28861 8.38084 10.3333 7.31486 10.3333 5.99989C10.3333 4.68493 9.28861 3.61894 7.99995 3.61894C6.71128 3.61894 5.66661 4.68493 5.66661 5.99989C5.66661 7.31486 6.71128 8.38084 7.99995 8.38084Z" fill="#8C9196"/>
</svg>
