<svg width="25" height="25" viewBox="0 0 25 25" fill="none" xmlns="http://www.w3.org/2000/svg">
<path d="M12.5 0C19.4036 0 25 5.59644 25 12.5C25 19.4036 19.4036 25 12.5 25C5.59644 25 0 19.4036 0 12.5C0 5.59644 5.59644 0 12.5 0Z" fill="#7F4DA0"/>
<path d="M15.8302 10.9158C15.7694 10.4218 15.6176 10.034 15.348 9.69051C14.9979 9.24818 14.5506 8.9833 13.8882 8.82617C13.4566 8.72145 13.2822 8.73347 13.1261 8.87607C12.9807 9.00967 12.9523 9.27751 13.0634 9.45095C13.1416 9.57683 13.2317 9.62193 13.4825 9.67115C13.8164 9.73258 14.0471 9.81232 14.257 9.93234C14.7026 10.1896 14.9101 10.5922 14.9323 11.2439C14.9427 11.5499 14.9691 11.644 15.076 11.7525C15.2741 11.9509 15.6266 11.9124 15.7762 11.6749C15.8311 11.5855 15.8394 11.5465 15.8452 11.3387C15.849 11.2101 15.8435 11.0186 15.8302 10.9158Z" fill="white"/>
<path d="M17.5753 11.4726C17.4873 9.95935 16.8954 8.7419 15.8361 7.88533C15.2393 7.40402 14.5179 7.07306 13.7272 6.9121C13.4375 6.85454 12.9042 6.80788 12.8127 6.83457C12.7263 6.85928 12.6042 6.95277 12.5498 7.03731C12.4922 7.12899 12.4793 7.33368 12.5284 7.45208C12.6076 7.65001 12.7551 7.71994 13.1679 7.75606C13.8044 7.81175 14.461 8.03537 14.957 8.36644C15.5233 8.74338 15.9735 9.25895 16.2647 9.86479C16.5164 10.3853 16.6711 11.1355 16.6668 11.8073C16.6654 12.0502 16.7029 12.1874 16.8006 12.2877C16.9481 12.442 17.1631 12.4757 17.3528 12.3733C17.5631 12.2627 17.6123 12.0686 17.5753 11.4726Z" fill="white"/>
<path d="M19.5063 17.3003C19.4767 17.2138 19.4076 17.0804 19.3583 17.0038C19.0474 16.5343 17.3773 15.2273 16.5434 14.7998C16.0673 14.5553 15.7145 14.4737 15.453 14.5503C15.1717 14.6294 15.0237 14.7603 14.5525 15.3459C14.3625 15.5806 14.1676 15.8005 14.1158 15.8351C13.9875 15.924 13.7359 15.9957 13.5583 15.9957C13.1463 15.9932 12.3988 15.7264 11.824 15.3755C11.3774 15.1038 10.8051 14.617 10.366 14.1352C9.84786 13.5694 9.49512 13.0703 9.21631 12.507C8.85615 11.7831 8.76487 11.3408 8.91534 11.0171C8.95235 10.9356 9.0017 10.8491 9.02387 10.8219C9.04609 10.7972 9.27801 10.607 9.53455 10.3994C10.0378 9.99917 10.1192 9.90775 10.213 9.6335C10.3314 9.2851 10.2994 8.92932 10.1168 8.57107C9.97615 8.29927 9.60857 7.7063 9.34214 7.32334C8.98936 6.81932 8.11109 5.74207 7.93591 5.59625C7.62014 5.33932 7.21558 5.29482 6.76901 5.46781C6.29785 5.65065 5.41463 6.36222 5.03716 6.85885C4.69671 7.30852 4.566 7.62723 4.54625 8.04726C4.52899 8.39315 4.55858 8.53646 4.74115 8.97874C6.16955 12.4477 8.30103 15.2174 11.2294 17.4164C12.759 18.5653 14.3453 19.4399 15.9908 20.0379C16.9504 20.3862 17.3674 20.4035 17.8583 20.117C18.0655 19.9934 18.5787 19.4671 18.8648 19.0842C19.3385 18.4467 19.5137 18.1527 19.563 17.918C19.5976 17.7574 19.5704 17.4782 19.5063 17.3003Z" fill="white"/>
<path d="M19.3519 11.8201C19.3203 10.9641 19.1762 10.262 18.8757 9.47927C18.579 8.70928 18.2787 8.20682 17.7117 7.52722C17.1755 6.89002 16.7591 6.5262 16.0987 6.1212C15.1773 5.55694 14.0559 5.18353 12.7992 5.02648C12.3707 4.9716 12.2737 4.97552 12.1423 5.06325C11.8875 5.22944 11.8909 5.64396 12.1465 5.80766C12.2311 5.85973 12.3061 5.8787 12.6489 5.92357C13.1752 5.99442 13.5136 6.06119 13.9151 6.17074C15.4896 6.60114 16.7003 7.48091 17.5098 8.78688C18.1872 9.87541 18.4684 10.964 18.4285 12.3544C18.4146 12.8244 18.4247 12.9071 18.4965 13.0201C18.6341 13.2306 18.997 13.2722 19.1832 13.0975C19.299 12.9911 19.3208 12.9112 19.3436 12.5089C19.3546 12.299 19.3569 11.9892 19.3519 11.8201Z" fill="white"/>
</svg>
