<svg width="30" height="30" viewBox="0 0 30 30" fill="none" xmlns="http://www.w3.org/2000/svg">
<path fill-rule="evenodd" clip-rule="evenodd" d="M15 30C23.2843 30 30 23.2843 30 15C30 6.71573 23.2843 0 15 0C6.71573 0 0 6.71573 0 15C0 23.2843 6.71573 30 15 30ZM11.5917 8.01789L8.54488 8.721C8.22555 8.79424 7.99997 9.07842 7.99997 9.40654C7.99997 16.921 14.0907 23 21.5934 23C21.9245 23 22.2057 22.7715 22.279 22.4551L22.9821 19.4083C23.0583 19.0772 22.8854 18.7374 22.5719 18.5997L19.2908 17.1935C19.0037 17.0704 18.6697 17.1525 18.4705 17.3956L17.0174 19.171C14.7235 18.0958 12.8807 16.2267 11.8261 13.9797L13.6014 12.5266C13.8446 12.3303 13.9266 11.9934 13.8036 11.7063L12.3973 8.42511C12.2626 8.11457 11.9227 7.94172 11.5917 8.01789Z" fill="#EC6347"/>
</svg>
