<svg width="20" height="14" viewBox="0 0 20 14" fill="none" xmlns="http://www.w3.org/2000/svg">
<path d="M19.2341 6.57424C17.2198 2.46335 13.6423 0.333496 9.99935 0.333496C6.35643 0.333496 2.77889 2.46335 0.76455 6.57424C0.633171 6.84237 0.633171 7.15796 0.76455 7.42608C2.77889 11.537 6.35643 13.6668 9.99935 13.6668C13.6423 13.6668 17.2198 11.537 19.2341 7.42608C19.3655 7.15796 19.3655 6.84237 19.2341 6.57424ZM9.99935 11.7621C7.22848 11.7621 4.39753 10.2185 2.6537 7.00016C4.39753 3.78186 7.22848 2.23826 9.99935 2.23826C12.7702 2.23826 15.6012 3.78186 17.345 7.00016C15.6012 10.2185 12.7702 11.7621 9.99935 11.7621Z" fill="#323C47"/>
<path d="M9.99935 9.85731C11.5457 9.85731 12.7993 8.57812 12.7993 7.00016C12.7993 5.42221 11.5457 4.14302 9.99935 4.14302C8.45295 4.14302 7.19935 5.42221 7.19935 7.00016C7.19935 8.57812 8.45295 9.85731 9.99935 9.85731Z" fill="#323C47"/>
</svg>
