<svg width="419" height="215" viewBox="0 0 419 215" fill="none" xmlns="http://www.w3.org/2000/svg">
<path d="M209.529 42L181.368 69.7968H162.632V88.2902L147 103.72H173.494L209.529 68.1517L245.506 103.72H272L209.529 42Z" fill="#00AEEF"/>
<path d="M267.23 114.215H213.897V123.008H248.437V152.506H169.817V116.484H151.081V171H267.23V123.008V114.215Z" fill="#00AEEF"/>
<path d="M225.736 118.072C225.736 126.014 219.242 132.425 211.196 132.425C203.15 132.425 196.656 126.014 196.656 118.072C196.656 110.131 203.15 103.72 211.196 103.72C219.242 103.72 225.736 110.131 225.736 118.072Z" fill="#EC6347"/>
<path d="M114.192 138.616H89.5523V171H76.8803V138.616H7.36031V129.464L72.6563 47.8H86.7363L23.7283 127.352H77.2323V98.84H89.5523V127.352H114.192V138.616Z" fill="#00AEEF"/>
<path d="M416.192 138.616H391.552V171H378.88V138.616H309.36V129.464L374.656 47.8H388.736L325.728 127.352H379.232V98.84H391.552V127.352H416.192V138.616Z" fill="#00AEEF"/>
</svg>
